<svg xmlns="http://www.w3.org/2000/svg" width="512" height="512" viewBox="0 0 512 512" role="img" aria-labelledby="title desc">
  <title id="title">Yeeflow Builder</title>
  <desc id="desc">A blue Yeeflow Builder plugin icon with connected workflow nodes, builder marks, and the Yeeflow logo.</desc>
  <defs>
    <linearGradient id="bg" x1="80" y1="48" x2="432" y2="464" gradientUnits="userSpaceOnUse">
      <stop offset="0" stop-color="#0EA5E9"/>
      <stop offset="0.52" stop-color="#2563EB"/>
      <stop offset="1" stop-color="#14B8A6"/>
    </linearGradient>
    <linearGradient id="panel" x1="132" y1="120" x2="380" y2="392" gradientUnits="userSpaceOnUse">
      <stop offset="0" stop-color="#FFFFFF" stop-opacity="0.98"/>
      <stop offset="1" stop-color="#EAF6FF" stop-opacity="0.9"/>
    </linearGradient>
    <filter id="shadow" x="-20%" y="-20%" width="140%" height="140%" color-interpolation-filters="sRGB">
      <feDropShadow dx="0" dy="18" stdDeviation="22" flood-color="#0F172A" flood-opacity="0.22"/>
    </filter>
  </defs>
  <rect width="512" height="512" rx="112" fill="url(#bg)"/>
  <path d="M96 132c0-19.882 16.118-36 36-36h248c19.882 0 36 16.118 36 36v248c0 19.882-16.118 36-36 36H132c-19.882 0-36-16.118-36-36V132Z" fill="url(#panel)" filter="url(#shadow)"/>
  <path d="M169 181h65c30.376 0 55 24.624 55 55v41c0 30.376-24.624 55-55 55h-65" fill="none" stroke="#2563EB" stroke-width="26" stroke-linecap="round"/>
  <path d="M197 145v222" stroke="#0F766E" stroke-width="26" stroke-linecap="round"/>
  <circle cx="169" cy="181" r="28" fill="#FFFFFF" stroke="#2563EB" stroke-width="18"/>
  <circle cx="169" cy="256" r="28" fill="#FFFFFF" stroke="#2563EB" stroke-width="18"/>
  <circle cx="169" cy="331" r="28" fill="#FFFFFF" stroke="#2563EB" stroke-width="18"/>
  <image href="yeeflow-logo-only-blue.png" x="292" y="130" width="92" height="92" preserveAspectRatio="xMidYMid meet" aria-label="Yeeflow logo"/>
  <path d="M306 303h76" stroke="#0F766E" stroke-width="22" stroke-linecap="round"/>
  <path d="M306 347h76" stroke="#0F766E" stroke-width="22" stroke-linecap="round"/>
</svg>
